<svg xmlns="http://www.w3.org/2000/svg" xmlns:xlink="http://www.w3.org/1999/xlink" viewBox="0,0,256,256" width="50px" height="50px" fill-rule="nonzero"><g fill="#ffffff" fill-rule="nonzero" stroke="none" stroke-width="1" stroke-linecap="butt" stroke-linejoin="miter" stroke-miterlimit="10" stroke-dasharray="" stroke-dashoffset="0" font-family="none" font-weight="none" font-size="none" text-anchor="none" style="mix-blend-mode: normal"><g transform="scale(5.12,5.12)"><path d="M20,2c-3.921,0 -7.73675,0.66647 -11.34375,1.98047c-0.041,0.015 -0.06942,0.04641 -0.10742,0.06641c-0.06,0.031 -0.11692,0.06152 -0.16992,0.10352c-0.049,0.04 -0.08695,0.08386 -0.12695,0.13086c-0.043,0.05 -0.08223,0.1002 -0.11523,0.1582c-0.033,0.059 -0.05422,0.11959 -0.07422,0.18359c-0.013,0.04 -0.03792,0.07128 -0.04492,0.11328l-2.24805,12.05273c-2.307,1.199 -3.76953,3.58094 -3.76953,6.21094c0,3.859 3.141,7 7,7c3.859,0 7,-3.141 7,-7c0,-2.289 -1.136,-4.43728 -3,-5.73828v-12.47656c2.274,-0.519 4.615,-0.78516 7,-0.78516c12.703,0 23,9.402 23,21c0,11.598 -10.297,21 -23,21c-3.077,0 -6.67409,-0.71978 -9.62109,-1.92578c-0.508,-0.207 -1.09569,0.03487 -1.30469,0.54688c-0.209,0.512 0.03587,1.09569 0.54688,1.30469c3.176,1.299 7.05591,2.07422 10.37891,2.07422c15.439,0 28,-10.317 28,-23c0,-12.683 -12.561,-23 -28,-23zM16.07031,5.99414c-0.23166,-0.01833 -0.47206,0.05822 -0.66406,0.19922c-0.256,0.188 -0.40625,0.48864 -0.40625,0.80664v9c0,0.352 0.18437,0.67742 0.48438,0.85742c0.045,0.028 4.51563,2.79358 4.51563,10.14258c0,6.543 -3.74325,11.827 -3.78125,11.875c-0.317,0.397 -0.28478,0.97108 0.07422,1.33008c0.216,0.216 0.95703,0.79492 3.70703,0.79492c3.317,0 3.99805,-1.136 3.99805,-3.375c0,-0.715 -0.09011,-1.18069 -0.16211,-1.55469c-0.051,-0.264 -0.0888,-0.45478 -0.0918,-0.67578c0.041,-0.119 0.359,-0.3558 0.625,-0.4668c0.313,-0.125 0.54042,-0.39852 0.60742,-0.72852c0.067,-0.33 -0.03448,-0.66925 -0.27148,-0.90625l-0.29297,-0.29297l0.29297,-0.29297c0.311,-0.31 0.38173,-0.78583 0.17773,-1.17383c-0.254,-0.481 -0.54447,-1.05136 -0.73047,-1.44336l1.98633,-1.03516c0.495,-0.256 0.81447,-0.73797 0.85547,-1.29297c0.025,-0.339 -0.05533,-0.66994 -0.23633,-0.96094c-0.491,-0.784 -1.35445,-1.84414 -2.18945,-2.86914c-0.567,-0.696 -1.15138,-1.41172 -1.48437,-1.88672c0.391,-0.56 0.91406,-1.35692 0.91406,-2.16992c0,-4.532 -2.37217,-11.75008 -7.70117,-13.83008c-0.0735,-0.02875 -0.14934,-0.04467 -0.22656,-0.05078zM20.73828,6c-0.238,-0.008 -0.35173,0.2755 -0.17773,0.4375c3.898,3.627 5.4375,9.6995 5.4375,13.4375c0,0.76 -0.225,1.4533 -0.5,2.0293c0.203,0.252 0.41614,0.51467 0.61914,0.76367c0.879,1.079 1.77798,2.18431 2.33398,3.07031c0.532,0.853 0.68692,1.86533 0.41992,2.86133c-0.267,0.998 -1.00492,1.80616 -1.91992,2.28516l-0.13867,0.07227c0.249,0.67 0.24762,1.39487 0.01563,2.04688c0.178,0.505 0.21942,1.05466 0.10742,1.59766c-0.14,0.683 -0.5073,1.28189 -1.0293,1.71289c0.05,0.349 0.0918,0.78055 0.0918,1.31055c0,1.203 -0.21081,2.20709 -0.63281,2.99609c-0.094,0.176 0.02466,0.40091 0.22266,0.37891c1.163,-0.125 3.04111,-0.85073 3.91211,-1.30273c5.672,-2.941 9.5,-8.42127 9.5,-14.69727c0,-9.175 -6.361,-17.12995 -15.625,-18.75195c-0.177,-0.031 -1.32472,-0.20205 -2.63672,-0.24805z"></path></g></g></svg>